<svg width="73" height="19" viewBox="0 0 73 19" fill="none" xmlns="http://www.w3.org/2000/svg">
<path d="M9.04 14H12.5V-9.53674e-07H9.04V5.3H3.86V-9.53674e-07H0.42V14H3.86V8.46H9.04V14ZM18.1023 14.14C19.4823 14.14 20.7823 13.58 21.6223 12.74L21.6823 14H24.5023V7.58C24.5023 4.96 22.7823 3.46 19.7223 3.46C18.0623 3.46 16.8423 3.74 15.2623 4.46L16.0423 6.72C17.2623 6.2 18.2023 5.94 19.2823 5.94C20.8223 5.94 21.5023 6.42 21.5023 7.52V7.78C20.6623 7.56 19.8823 7.46 19.0823 7.46C16.2823 7.46 14.5623 8.76 14.5623 10.92C14.5623 12.84 15.9623 14.14 18.1023 14.14ZM17.7023 10.76C17.7023 9.96 18.3223 9.54 19.5023 9.54C20.0823 9.54 20.7823 9.66 21.5423 9.88C21.4423 11.02 20.4623 11.88 19.1023 11.88C18.1823 11.88 17.7023 11.46 17.7023 10.76ZM26.9402 14H32.8602C34.9802 14 36.4002 12.84 36.4002 11.12C36.4002 10 35.7602 9 34.7802 8.62C35.5802 8.1 36.0202 7.26 36.0202 6.32C36.0202 4.72 34.7202 3.68 32.6802 3.68H26.9402V14ZM30.0002 11.9V9.76H32.1002C32.9402 9.76 33.3402 10.14 33.3402 10.84C33.3402 11.52 32.9402 11.9 32.1002 11.9H30.0002ZM30.0002 7.78V5.74H31.9202C32.7202 5.74 33.1202 6.12 33.1202 6.76C33.1202 7.42 32.7202 7.78 31.9202 7.78H30.0002ZM43.4102 14.26C45.2302 14.26 46.8502 13.72 48.0102 12.8L46.7502 10.76C45.8702 11.4 44.8502 11.78 43.6502 11.78C42.1302 11.78 41.0502 11.1 40.7302 10.02H48.4302C49.0302 6.3 46.7502 3.42 43.0902 3.42C39.8302 3.42 37.5902 5.66 37.5902 8.86C37.5902 12.08 39.8702 14.26 43.4102 14.26ZM40.6902 7.94C40.9302 6.7 41.8702 5.92 43.1102 5.92C44.4102 5.92 45.2702 6.74 45.5302 7.94H40.6902ZM57.0172 14.24C59.8372 14.24 61.8572 12.02 61.8572 8.84C61.8572 5.66 59.8372 3.46 57.0172 3.46C55.5172 3.46 54.2572 4.1 53.4172 5.18L53.3772 3.68H50.3972V18.6H53.6572V12.9C54.4772 13.76 55.6372 14.24 57.0172 14.24ZM53.5972 8.84C53.5972 7.3 54.6572 6.22 56.1172 6.22C57.5972 6.22 58.6372 7.28 58.6372 8.84C58.6372 10.4 57.5972 11.46 56.1172 11.46C54.6572 11.46 53.5972 10.4 53.5972 8.84ZM69.4102 14H72.9102L69.4902 8.78L72.7302 3.68H69.2702L68.1902 5.42L67.5102 6.58L66.8302 5.42L65.7302 3.68H62.2902L65.5502 8.78L62.1102 14H65.5902L66.7102 12.28L67.5102 10.96L68.3102 12.28L69.4102 14Z" fill="#14CCCC"/>
</svg>
